<?xml version="1.0" encoding="UTF-8" standalone="no"?>
<!DOCTYPE svg PUBLIC "-//W3C//DTD SVG 1.1//EN"
 "http://www.w3.org/Graphics/SVG/1.1/DTD/svg11.dtd">
<!-- Generated by graphviz version 2.36.0 (20140111.2315)
 -->
<!-- Title: G Pages: 1 -->
<svg width="416pt" height="1644pt"
 viewBox="0.00 0.00 416.00 1644.00" xmlns="http://www.w3.org/2000/svg" xmlns:xlink="http://www.w3.org/1999/xlink">
<g id="graph0" class="graph" transform="scale(1 1) rotate(0) translate(4 1640)">
<title>G</title>
<polygon fill="white" stroke="none" points="-4,4 -4,-1640 412,-1640 412,4 -4,4"/>
<g id="clust1" class="cluster"><title>cluster_Global</title>
<path fill="none" stroke="gray" d="M20,-44C20,-44 388,-44 388,-44 394,-44 400,-50 400,-56 400,-56 400,-1616 400,-1616 400,-1622 394,-1628 388,-1628 388,-1628 20,-1628 20,-1628 14,-1628 8,-1622 8,-1616 8,-1616 8,-56 8,-56 8,-50 14,-44 20,-44"/>
<text text-anchor="middle" x="204" y="-1615.2" font-family="Times,serif" font-size="11.00" fill="gray">Global</text>
</g>
<!-- \\XmlDomConstruct -->
<g id="node1" class="node"><title>\\XmlDomConstruct</title>
<polygon fill="none" stroke="black" points="372,-88 254,-88 254,-52 372,-52 372,-88"/>
<text text-anchor="middle" x="313" y="-67.2" font-family="Courier,monospace" font-size="11.00">XmlDomConstruct</text>
</g>
<!-- \\DOMDocument -->
<g id="node36" class="node"><title>\\DOMDocument</title>
<ellipse fill="none" stroke="black" cx="89" cy="-18" rx="71.4873" ry="18"/>
<text text-anchor="middle" x="89" y="-14.3" font-family="Times,serif" font-size="14.00" fill="gray">\DOMDocument</text>
</g>
<!-- \\XmlDomConstruct&#45;&gt;\\DOMDocument -->
<g id="edge1" class="edge"><title>\\XmlDomConstruct&#45;&gt;\\DOMDocument</title>
<path fill="none" stroke="black" d="M253.962,-56.4055C222.663,-49.0741 184.025,-40.0238 152.12,-32.5505"/>
<polygon fill="none" stroke="black" points="152.55,-29.0567 142.015,-30.1837 150.953,-35.8722 152.55,-29.0567"/>
</g>
<!-- \\identityFile -->
<g id="node2" class="node"><title>\\identityFile</title>
<polygon fill="none" stroke="black" points="362,-1546 264,-1546 264,-1510 362,-1510 362,-1546"/>
<text text-anchor="middle" x="313" y="-1525.2" font-family="Courier,monospace" font-size="11.00">identityFile</text>
</g>
<!-- \\identityFileHandler -->
<g id="node3" class="node"><title>\\identityFileHandler</title>
<polygon fill="none" stroke="black" points="385.5,-1492 240.5,-1492 240.5,-1456 385.5,-1456 385.5,-1492"/>
<text text-anchor="middle" x="313" y="-1471.2" font-family="Courier,monospace" font-size="11.00">identityFileHandler</text>
</g>
<!-- \\identityFolderHandler -->
<g id="node4" class="node"><title>\\identityFolderHandler</title>
<polygon fill="none" stroke="black" points="392,-1438 234,-1438 234,-1402 392,-1402 392,-1438"/>
<text text-anchor="middle" x="313" y="-1417.2" font-family="Courier,monospace" font-size="11.00">identityFolderHandler</text>
</g>
<!-- \\identityCacheMemcache -->
<g id="node5" class="node"><title>\\identityCacheMemcache</title>
<polygon fill="none" stroke="black" points="392,-1384 234,-1384 234,-1348 392,-1348 392,-1384"/>
<text text-anchor="middle" x="313" y="-1363.2" font-family="Courier,monospace" font-size="11.00">identityCacheMemcache</text>
</g>
<!-- \\identityCacheEngine -->
<g id="node9" class="node"><title>\\identityCacheEngine</title>
<polygon fill="none" stroke="black" points="161.5,-1357 16.5,-1357 16.5,-1321 161.5,-1321 161.5,-1357"/>
<text text-anchor="middle" x="89" y="-1336.2" font-family="Courier,monospace" font-size="11.00">identityCacheEngine</text>
</g>
<!-- \\identityCacheMemcache&#45;&gt;\\identityCacheEngine -->
<g id="edge2" class="edge"><title>\\identityCacheMemcache&#45;&gt;\\identityCacheEngine</title>
<path fill="none" stroke="black" d="M233.731,-1356.48C213.654,-1354.04 192.008,-1351.41 171.76,-1348.94"/>
<polygon fill="none" stroke="black" points="171.981,-1345.44 161.632,-1347.71 171.136,-1352.39 171.981,-1345.44"/>
</g>
<!-- \\identityCacheApc -->
<g id="node6" class="node"><title>\\identityCacheApc</title>
<polygon fill="none" stroke="black" points="375.5,-1330 250.5,-1330 250.5,-1294 375.5,-1294 375.5,-1330"/>
<text text-anchor="middle" x="313" y="-1309.2" font-family="Courier,monospace" font-size="11.00">identityCacheApc</text>
</g>
<!-- \\identityCacheApc&#45;&gt;\\identityCacheEngine -->
<g id="edge3" class="edge"><title>\\identityCacheApc&#45;&gt;\\identityCacheEngine</title>
<path fill="none" stroke="black" d="M250.455,-1319.49C226.213,-1322.43 198.015,-1325.86 172.08,-1329.02"/>
<polygon fill="none" stroke="black" points="171.391,-1325.58 161.887,-1330.26 172.236,-1332.52 171.391,-1325.58"/>
</g>
<!-- \\identityCacheXcache -->
<g id="node7" class="node"><title>\\identityCacheXcache</title>
<polygon fill="none" stroke="black" points="385.5,-1276 240.5,-1276 240.5,-1240 385.5,-1240 385.5,-1276"/>
<text text-anchor="middle" x="313" y="-1255.2" font-family="Courier,monospace" font-size="11.00">identityCacheXcache</text>
</g>
<!-- \\identityCacheXcache&#45;&gt;\\identityCacheEngine -->
<g id="edge4" class="edge"><title>\\identityCacheXcache&#45;&gt;\\identityCacheEngine</title>
<path fill="none" stroke="black" d="M259.069,-1276.12C250.67,-1279.05 242.088,-1282.08 234,-1285 205.142,-1295.4 173.183,-1307.35 146.719,-1317.35"/>
<polygon fill="none" stroke="black" points="145.346,-1314.13 137.233,-1320.94 147.825,-1320.67 145.346,-1314.13"/>
</g>
<!-- \\identityCache -->
<g id="node8" class="node"><title>\\identityCache</title>
<polygon fill="none" stroke="black" points="365,-1222 261,-1222 261,-1186 365,-1186 365,-1222"/>
<text text-anchor="middle" x="313" y="-1201.2" font-family="Courier,monospace" font-size="11.00">identityCache</text>
</g>
<!-- \\identityCacheFile -->
<g id="node10" class="node"><title>\\identityCacheFile</title>
<polygon fill="none" stroke="black" points="378.5,-1600 247.5,-1600 247.5,-1564 378.5,-1564 378.5,-1600"/>
<text text-anchor="middle" x="313" y="-1579.2" font-family="Courier,monospace" font-size="11.00">identityCacheFile</text>
</g>
<!-- \\identityCacheFile&#45;&gt;\\identityCacheEngine -->
<g id="edge5" class="edge"><title>\\identityCacheFile&#45;&gt;\\identityCacheEngine</title>
<path fill="none" stroke="black" d="M248.019,-1563.85C243.056,-1561.27 238.308,-1558.33 234,-1555 167.391,-1503.52 121.319,-1412.16 101.278,-1366.53"/>
<polygon fill="none" stroke="black" points="104.456,-1365.07 97.2886,-1357.26 98.0257,-1367.83 104.456,-1365.07"/>
</g>
<!-- \\identity -->
<g id="node11" class="node"><title>\\identity</title>
<polygon fill="none" stroke="black" points="348.5,-1114 277.5,-1114 277.5,-1078 348.5,-1078 348.5,-1114"/>
<text text-anchor="middle" x="313" y="-1093.2" font-family="Courier,monospace" font-size="11.00">identity</text>
</g>
<!-- \\qcp135_enumerator -->
<g id="node12" class="node"><title>\\qcp135_enumerator</title>
<polygon fill="none" stroke="black" points="378.5,-1006 247.5,-1006 247.5,-970 378.5,-970 378.5,-1006"/>
<text text-anchor="middle" x="313" y="-985.2" font-family="Courier,monospace" font-size="11.00">qcp135_enumerator</text>
</g>
<!-- \\qcp135 -->
<g id="node16" class="node"><title>\\qcp135</title>
<polygon fill="none" stroke="black" points="117.5,-1060 60.5,-1060 60.5,-1024 117.5,-1024 117.5,-1060"/>
<text text-anchor="middle" x="89" y="-1039.2" font-family="Courier,monospace" font-size="11.00">qcp135</text>
</g>
<!-- \\qcp135_enumerator&#45;&gt;\\qcp135 -->
<g id="edge6" class="edge"><title>\\qcp135_enumerator&#45;&gt;\\qcp135</title>
<path fill="none" stroke="black" d="M247.49,-1003.69C208.676,-1013.13 160.606,-1024.83 127.852,-1032.79"/>
<polygon fill="none" stroke="black" points="126.676,-1029.48 117.787,-1035.24 128.33,-1036.28 126.676,-1029.48"/>
</g>
<!-- \\qcp135_leaver -->
<g id="node13" class="node"><title>\\qcp135_leaver</title>
<polygon fill="none" stroke="black" points="365,-1168 261,-1168 261,-1132 365,-1132 365,-1168"/>
<text text-anchor="middle" x="313" y="-1147.2" font-family="Courier,monospace" font-size="11.00">qcp135_leaver</text>
</g>
<!-- \\qcp135_leaver&#45;&gt;\\qcp135 -->
<g id="edge7" class="edge"><title>\\qcp135_leaver&#45;&gt;\\qcp135</title>
<path fill="none" stroke="black" d="M260.717,-1133.72C251.704,-1130.44 242.494,-1126.82 234,-1123 196.117,-1105.95 155.01,-1082.27 126.451,-1064.92"/>
<polygon fill="none" stroke="black" points="127.996,-1061.76 117.64,-1059.52 124.34,-1067.73 127.996,-1061.76"/>
</g>
<!-- \\Qcp135HashAPI -->
<g id="node14" class="node"><title>\\Qcp135HashAPI</title>
<polygon fill="none" stroke="black" points="365,-628 261,-628 261,-592 365,-592 365,-628"/>
<text text-anchor="middle" x="313" y="-607.2" font-family="Courier,monospace" font-size="11.00">Qcp135HashAPI</text>
</g>
<!-- \\identityHashAPI -->
<g id="node19" class="node"><title>\\identityHashAPI</title>
<polygon fill="none" stroke="black" points="148,-601 30,-601 30,-565 148,-565 148,-601"/>
<text text-anchor="middle" x="89" y="-580.2" font-family="Courier,monospace" font-size="11.00">identityHashAPI</text>
</g>
<!-- \\Qcp135HashAPI&#45;&gt;\\identityHashAPI -->
<g id="edge8" class="edge"><title>\\Qcp135HashAPI&#45;&gt;\\identityHashAPI</title>
<path fill="none" stroke="black" d="M260.79,-603.772C230.386,-600.074 191.451,-595.339 158.437,-591.323"/>
<polygon fill="none" stroke="black" points="158.746,-587.835 148.397,-590.102 157.901,-594.784 158.746,-587.835"/>
</g>
<!-- \\qcp135_base -->
<g id="node15" class="node"><title>\\qcp135_base</title>
<polygon fill="none" stroke="black" points="358.5,-1060 267.5,-1060 267.5,-1024 358.5,-1024 358.5,-1060"/>
<text text-anchor="middle" x="313" y="-1039.2" font-family="Courier,monospace" font-size="11.00">qcp135_base</text>
</g>
<!-- \\qcp135_base&#45;&gt;\\qcp135 -->
<g id="edge9" class="edge"><title>\\qcp135_base&#45;&gt;\\qcp135</title>
<path fill="none" stroke="black" d="M267.342,-1042C226.487,-1042 166.694,-1042 128.058,-1042"/>
<polygon fill="none" stroke="black" points="127.755,-1038.5 117.755,-1042 127.755,-1045.5 127.755,-1038.5"/>
</g>
<!-- \\Sha1HashAPI -->
<g id="node17" class="node"><title>\\Sha1HashAPI</title>
<polygon fill="none" stroke="black" points="358.5,-574 267.5,-574 267.5,-538 358.5,-538 358.5,-574"/>
<text text-anchor="middle" x="313" y="-553.2" font-family="Courier,monospace" font-size="11.00">Sha1HashAPI</text>
</g>
<!-- \\Sha1HashAPI&#45;&gt;\\identityHashAPI -->
<g id="edge10" class="edge"><title>\\Sha1HashAPI&#45;&gt;\\identityHashAPI</title>
<path fill="none" stroke="black" d="M267.342,-561.431C236.112,-565.23 193.815,-570.374 158.361,-574.686"/>
<polygon fill="none" stroke="black" points="157.583,-571.255 148.079,-575.936 158.429,-578.203 157.583,-571.255"/>
</g>
<!-- \\identityHashesAPI -->
<g id="node18" class="node"><title>\\identityHashesAPI</title>
<polygon fill="none" stroke="black" points="378.5,-790 247.5,-790 247.5,-754 378.5,-754 378.5,-790"/>
<text text-anchor="middle" x="313" y="-769.2" font-family="Courier,monospace" font-size="11.00">identityHashesAPI</text>
</g>
<!-- \\qcp71_leaver -->
<g id="node20" class="node"><title>\\qcp71_leaver</title>
<polygon fill="none" stroke="black" points="362,-844 264,-844 264,-808 362,-808 362,-844"/>
<text text-anchor="middle" x="313" y="-823.2" font-family="Courier,monospace" font-size="11.00">qcp71_leaver</text>
</g>
<!-- \\qcp71 -->
<g id="node24" class="node"><title>\\qcp71</title>
<polygon fill="none" stroke="black" points="116,-898 62,-898 62,-862 116,-862 116,-898"/>
<text text-anchor="middle" x="89" y="-877.2" font-family="Courier,monospace" font-size="11.00">qcp71</text>
</g>
<!-- \\qcp71_leaver&#45;&gt;\\qcp71 -->
<g id="edge11" class="edge"><title>\\qcp71_leaver&#45;&gt;\\qcp71</title>
<path fill="none" stroke="black" d="M263.829,-837.717C222.449,-847.783 163.698,-862.073 126.216,-871.191"/>
<polygon fill="none" stroke="black" points="125.13,-867.853 116.24,-873.617 126.784,-874.654 125.13,-867.853"/>
</g>
<!-- \\Qcp71HashAPI -->
<g id="node21" class="node"><title>\\Qcp71HashAPI</title>
<polygon fill="none" stroke="black" points="362,-682 264,-682 264,-646 362,-646 362,-682"/>
<text text-anchor="middle" x="313" y="-661.2" font-family="Courier,monospace" font-size="11.00">Qcp71HashAPI</text>
</g>
<!-- \\Qcp71HashAPI&#45;&gt;\\identityHashAPI -->
<g id="edge12" class="edge"><title>\\Qcp71HashAPI&#45;&gt;\\identityHashAPI</title>
<path fill="none" stroke="black" d="M263.667,-647.484C253.833,-644.064 243.571,-640.451 234,-637 205.142,-626.596 173.183,-614.655 146.719,-604.651"/>
<polygon fill="none" stroke="black" points="147.825,-601.327 137.233,-601.059 145.346,-607.873 147.825,-601.327"/>
</g>
<!-- \\qcp71_enumerator -->
<g id="node22" class="node"><title>\\qcp71_enumerator</title>
<polygon fill="none" stroke="black" points="375.5,-952 250.5,-952 250.5,-916 375.5,-916 375.5,-952"/>
<text text-anchor="middle" x="313" y="-931.2" font-family="Courier,monospace" font-size="11.00">qcp71_enumerator</text>
</g>
<!-- \\qcp71_enumerator&#45;&gt;\\qcp71 -->
<g id="edge13" class="edge"><title>\\qcp71_enumerator&#45;&gt;\\qcp71</title>
<path fill="none" stroke="black" d="M250.455,-919.03C210.452,-909.299 159.676,-896.948 126.077,-888.775"/>
<polygon fill="none" stroke="black" points="126.776,-885.343 116.232,-886.381 125.121,-892.145 126.776,-885.343"/>
</g>
<!-- \\qcp71_base -->
<g id="node23" class="node"><title>\\qcp71_base</title>
<polygon fill="none" stroke="black" points="355,-898 271,-898 271,-862 355,-862 355,-898"/>
<text text-anchor="middle" x="313" y="-877.2" font-family="Courier,monospace" font-size="11.00">qcp71_base</text>
</g>
<!-- \\qcp71_base&#45;&gt;\\qcp71 -->
<g id="edge14" class="edge"><title>\\qcp71_base&#45;&gt;\\qcp71</title>
<path fill="none" stroke="black" d="M270.764,-880C229.211,-880 165.722,-880 126.1,-880"/>
<polygon fill="none" stroke="black" points="126.082,-876.5 116.082,-880 126.082,-883.5 126.082,-876.5"/>
</g>
<!-- \\qcp64_enumerator -->
<g id="node25" class="node"><title>\\qcp64_enumerator</title>
<polygon fill="none" stroke="black" points="375.5,-304 250.5,-304 250.5,-268 375.5,-268 375.5,-304"/>
<text text-anchor="middle" x="313" y="-283.2" font-family="Courier,monospace" font-size="11.00">qcp64_enumerator</text>
</g>
<!-- \\qcp64 -->
<g id="node28" class="node"><title>\\qcp64</title>
<polygon fill="none" stroke="black" points="116,-358 62,-358 62,-322 116,-322 116,-358"/>
<text text-anchor="middle" x="89" y="-337.2" font-family="Courier,monospace" font-size="11.00">qcp64</text>
</g>
<!-- \\qcp64_enumerator&#45;&gt;\\qcp64 -->
<g id="edge15" class="edge"><title>\\qcp64_enumerator&#45;&gt;\\qcp64</title>
<path fill="none" stroke="black" d="M250.455,-300.97C210.452,-310.701 159.676,-323.052 126.077,-331.225"/>
<polygon fill="none" stroke="black" points="125.121,-327.855 116.232,-333.619 126.776,-334.657 125.121,-327.855"/>
</g>
<!-- \\qcp64_leaver -->
<g id="node26" class="node"><title>\\qcp64_leaver</title>
<polygon fill="none" stroke="black" points="362,-412 264,-412 264,-376 362,-376 362,-412"/>
<text text-anchor="middle" x="313" y="-391.2" font-family="Courier,monospace" font-size="11.00">qcp64_leaver</text>
</g>
<!-- \\qcp64_leaver&#45;&gt;\\qcp64 -->
<g id="edge16" class="edge"><title>\\qcp64_leaver&#45;&gt;\\qcp64</title>
<path fill="none" stroke="black" d="M263.829,-382.283C222.449,-372.217 163.698,-357.927 126.216,-348.809"/>
<polygon fill="none" stroke="black" points="126.784,-345.346 116.24,-346.383 125.13,-352.147 126.784,-345.346"/>
</g>
<!-- \\qcp64_base -->
<g id="node27" class="node"><title>\\qcp64_base</title>
<polygon fill="none" stroke="black" points="355,-358 271,-358 271,-322 355,-322 355,-358"/>
<text text-anchor="middle" x="313" y="-337.2" font-family="Courier,monospace" font-size="11.00">qcp64_base</text>
</g>
<!-- \\qcp64_base&#45;&gt;\\qcp64 -->
<g id="edge17" class="edge"><title>\\qcp64_base&#45;&gt;\\qcp64</title>
<path fill="none" stroke="black" d="M270.764,-340C229.211,-340 165.722,-340 126.1,-340"/>
<polygon fill="none" stroke="black" points="126.082,-336.5 116.082,-340 126.082,-343.5 126.082,-336.5"/>
</g>
<!-- \\Qcp64HashAPI -->
<g id="node29" class="node"><title>\\Qcp64HashAPI</title>
<polygon fill="none" stroke="black" points="362,-520 264,-520 264,-484 362,-484 362,-520"/>
<text text-anchor="middle" x="313" y="-499.2" font-family="Courier,monospace" font-size="11.00">Qcp64HashAPI</text>
</g>
<!-- \\Qcp64HashAPI&#45;&gt;\\identityHashAPI -->
<g id="edge18" class="edge"><title>\\Qcp64HashAPI&#45;&gt;\\identityHashAPI</title>
<path fill="none" stroke="black" d="M263.667,-518.516C253.833,-521.936 243.571,-525.549 234,-529 205.142,-539.404 173.183,-551.345 146.719,-561.349"/>
<polygon fill="none" stroke="black" points="145.346,-558.127 137.233,-564.941 147.825,-564.673 145.346,-558.127"/>
</g>
<!-- \\Md5HashAPI -->
<g id="node30" class="node"><title>\\Md5HashAPI</title>
<polygon fill="none" stroke="black" points="355,-466 271,-466 271,-430 355,-430 355,-466"/>
<text text-anchor="middle" x="313" y="-445.2" font-family="Courier,monospace" font-size="11.00">Md5HashAPI</text>
</g>
<!-- \\Md5HashAPI&#45;&gt;\\identityHashAPI -->
<g id="edge19" class="edge"><title>\\Md5HashAPI&#45;&gt;\\identityHashAPI</title>
<path fill="none" stroke="black" d="M270.913,-459.565C258.701,-463.701 245.516,-468.882 234,-475 190.296,-498.22 145.557,-534.042 117.788,-557.988"/>
<polygon fill="none" stroke="black" points="115.317,-555.5 110.078,-564.709 119.916,-560.776 115.317,-555.5"/>
</g>
<!-- \\xoops_crc_enumerator -->
<g id="node31" class="node"><title>\\xoops_crc_enumerator</title>
<polygon fill="none" stroke="black" points="389,-142 237,-142 237,-106 389,-106 389,-142"/>
<text text-anchor="middle" x="313" y="-121.2" font-family="Courier,monospace" font-size="11.00">xoops_crc_enumerator</text>
</g>
<!-- \\xoops_crc -->
<g id="node35" class="node"><title>\\xoops_crc</title>
<polygon fill="none" stroke="black" points="127.5,-196 50.5,-196 50.5,-160 127.5,-160 127.5,-196"/>
<text text-anchor="middle" x="89" y="-175.2" font-family="Courier,monospace" font-size="11.00">xoops_crc</text>
</g>
<!-- \\xoops_crc_enumerator&#45;&gt;\\xoops_crc -->
<g id="edge20" class="edge"><title>\\xoops_crc_enumerator&#45;&gt;\\xoops_crc</title>
<path fill="none" stroke="black" d="M237.769,-142.056C204.731,-150.092 166.795,-159.32 137.633,-166.413"/>
<polygon fill="none" stroke="black" points="136.596,-163.064 127.707,-168.828 138.251,-169.865 136.596,-163.064"/>
</g>
<!-- \\xoops_crc_base -->
<g id="node32" class="node"><title>\\xoops_crc_base</title>
<polygon fill="none" stroke="black" points="368.5,-250 257.5,-250 257.5,-214 368.5,-214 368.5,-250"/>
<text text-anchor="middle" x="313" y="-229.2" font-family="Courier,monospace" font-size="11.00">xoops_crc_base</text>
</g>
<!-- \\xoops_crc_base&#45;&gt;\\xoops_crc -->
<g id="edge21" class="edge"><title>\\xoops_crc_base&#45;&gt;\\xoops_crc</title>
<path fill="none" stroke="black" d="M257.408,-218.721C220.718,-209.796 172.828,-198.147 137.674,-189.596"/>
<polygon fill="none" stroke="black" points="138.202,-186.123 127.658,-187.16 136.548,-192.925 138.202,-186.123"/>
</g>
<!-- \\XoopscrcHashAPI -->
<g id="node33" class="node"><title>\\XoopscrcHashAPI</title>
<polygon fill="none" stroke="black" points="372,-736 254,-736 254,-700 372,-700 372,-736"/>
<text text-anchor="middle" x="313" y="-715.2" font-family="Courier,monospace" font-size="11.00">XoopscrcHashAPI</text>
</g>
<!-- \\XoopscrcHashAPI&#45;&gt;\\identityHashAPI -->
<g id="edge22" class="edge"><title>\\XoopscrcHashAPI&#45;&gt;\\identityHashAPI</title>
<path fill="none" stroke="black" d="M253.642,-700.051C246.886,-697.317 240.201,-694.295 234,-691 190.296,-667.78 145.557,-631.958 117.788,-608.012"/>
<polygon fill="none" stroke="black" points="119.916,-605.224 110.078,-601.291 115.317,-610.5 119.916,-605.224"/>
</g>
<!-- \\xoops_crc_leaver -->
<g id="node34" class="node"><title>\\xoops_crc_leaver</title>
<polygon fill="none" stroke="black" points="375.5,-196 250.5,-196 250.5,-160 375.5,-160 375.5,-196"/>
<text text-anchor="middle" x="313" y="-175.2" font-family="Courier,monospace" font-size="11.00">xoops_crc_leaver</text>
</g>
<!-- \\xoops_crc_leaver&#45;&gt;\\xoops_crc -->
<g id="edge23" class="edge"><title>\\xoops_crc_leaver&#45;&gt;\\xoops_crc</title>
<path fill="none" stroke="black" d="M250.455,-178C214.908,-178 170.855,-178 137.907,-178"/>
<polygon fill="none" stroke="black" points="137.624,-174.5 127.624,-178 137.624,-181.5 137.624,-174.5"/>
</g>
</g>
</svg>
